grf
version=1
nRows=17
nColumns=37
inDegrees=no
endheader
time	ground_force_1_vx	ground_force_1_vy	ground_force_1_vz	ground_force_1_px	ground_force_1_py	ground_force_1_pz	ground_moment_1_mx	ground_moment_1_my	ground_moment_1_mz	ground_force_2_vx	ground_force_2_vy	ground_force_2_vz	ground_force_2_px	ground_force_2_py	ground_force_2_pz	ground_moment_2_mx	ground_moment_2_my	ground_moment_2_mz	ground_force_3_vx	ground_force_3_vy	ground_force_3_vz	ground_force_3_px	ground_force_3_py	ground_force_3_pz	ground_moment_3_mx	ground_moment_3_my	ground_moment_3_mz	ground_force_4_vx	ground_force_4_vy	ground_force_4_vz	ground_force_4_px	ground_force_4_py	ground_force_4_pz	ground_moment_4_mx	ground_moment_4_my	ground_moment_4_mz
      2.62000000	      0.00000000	     -0.00000000	      0.00000000	      0.00000000	      0.00000000	      0.00000000	      0.00000000	      0.00000000	      0.00000000	     -1.06714201	     52.22365189	   -379.95462036	   -297.62977018	  -1146.40492579	      0.00000000	      0.00000000	      0.00000000	   5494.87080739	     12.16023706	    -57.37833892	   -390.40554810	   -334.12316060	   -739.70483229	      0.00000000	      0.00000000	     -0.00000000	  -5372.67039288	      0.00000000	     -0.00000000	      0.00000000	      0.00000000	      0.00000000	      0.00000000	      0.00000000	      0.00000000	      0.00000000
      2.63000000	      0.00000000	     -0.00000000	      0.00000000	      0.00000000	      0.00000000	      0.00000000	      0.00000000	      0.00000000	      0.00000000	     -0.79958230	     52.29969406	   -377.61492920	   -297.00754424	  -1144.41949489	      0.00000000	      0.00000000	      0.00000000	   5803.27439432	     11.86707378	    -57.22576245	   -395.22640991	   -333.83544716	   -738.35534370	      0.00000000	      0.00000000	     -0.00000000	  -5515.98076813	      0.00000000	     -0.00000000	      0.00000000	      0.00000000	      0.00000000	      0.00000000	      0.00000000	      0.00000000	      0.00000000
      2.64000000	      0.00000000	     -0.00000000	      0.00000000	      0.00000000	      0.00000000	      0.00000000	      0.00000000	      0.00000000	      0.00000000	      0.08273171	     51.60650635	   -376.76608276	   -297.15455119	  -1145.48768386	      0.00000000	      0.00000000	      0.00000000	   5707.22170109	     10.92128733	    -56.96421909	   -398.35614014	   -333.73174164	   -739.17061354	      0.00000000	     -0.00000000	     -0.00000000	  -5586.20935226	      0.00000000	     -0.00000000	      0.00000000	      0.00000000	      0.00000000	      0.00000000	      0.00000000	      0.00000000	      0.00000000
      2.65000000	      0.00000000	     -0.00000000	      0.00000000	      0.00000000	      0.00000000	      0.00000000	      0.00000000	      0.00000000	      0.00000000	      1.05152071	     51.67980957	   -371.20468140	   -297.09021094	  -1144.78844301	      0.00000000	      0.00000000	      0.00000000	   6040.08044786	     10.74043449	    -56.36205004	   -402.14669800	   -333.83315845	   -738.50335279	      0.00000000	      0.00000000	     -0.00000000	  -5811.01242501	      0.00000000	     -0.00000000	      0.00000000	      0.00000000	      0.00000000	      0.00000000	      0.00000000	      0.00000000	      0.00000000
      2.66000000	      0.00000000	     -0.00000000	      0.00000000	      0.00000000	      0.00000000	      0.00000000	      0.00000000	      0.00000000	      0.00000000	      2.23955083	     50.53075409	   -365.13900757	   -295.78736961	  -1144.86223893	      0.00000000	      0.00000000	      0.00000000	   5927.83840822	     11.26311857	    -56.49455741	   -401.32382202	   -332.85282567	   -741.73822341	      0.00000000	      0.00000000	     -0.00000000	  -5857.00828805	      0.00000000	     -0.00000000	      0.00000000	      0.00000000	      0.00000000	      0.00000000	      0.00000000	      0.00000000	      0.00000000
      2.67000000	      0.00000000	     -0.00000000	      0.00000000	      0.00000000	      0.00000000	      0.00000000	      0.00000000	      0.00000000	      0.00000000	      3.10120583	     49.55348206	   -360.58477783	   -294.76559835	  -1144.34757502	      0.00000000	      0.00000000	      0.00000000	   5917.40098532	     11.09191700	    -54.94833090	   -403.99264526	   -332.36921126	   -738.66370675	      0.00000000	     -0.00000000	     -0.00000000	  -5793.63194836	      0.00000000	     -0.00000000	      0.00000000	      0.00000000	      0.00000000	      0.00000000	      0.00000000	      0.00000000	      0.00000000
      2.68000000	      0.00000000	     -0.00000000	      0.00000000	      0.00000000	      0.00000000	      0.00000000	      0.00000000	      0.00000000	      0.00000000	      1.97738767	     48.23724365	   -356.82858276	   -294.71118581	  -1143.98384485	      0.00000000	      0.00000000	      0.00000000	   5809.25290435	     10.99112590	    -56.35521413	   -403.29376221	   -332.11656087	   -739.98232139	      0.00000000	     -0.00000000	     -0.00000000	  -6131.90248764	      0.00000000	     -0.00000000	      0.00000000	      0.00000000	      0.00000000	      0.00000000	      0.00000000	      0.00000000	      0.00000000
      2.69000000	      0.00000000	     -0.00000000	      0.00000000	      0.00000000	      0.00000000	      0.00000000	      0.00000000	      0.00000000	      0.00000000	      0.27339044	     48.93547058	   -361.69046021	   -293.46757563	  -1145.35812854	      0.00000000	      0.00000000	      0.00000000	   6119.78958977	     10.11302448	    -57.22369855	   -405.66802979	   -331.35869305	   -738.75490081	      0.00000000	     -0.00000000	     -0.00000000	  -5973.75771599	      0.00000000	     -0.00000000	      0.00000000	      0.00000000	      0.00000000	      0.00000000	      0.00000000	      0.00000000	      0.00000000
      2.70000000	      0.00000000	     -0.00000000	      0.00000000	      0.00000000	      0.00000000	      0.00000000	      0.00000000	      0.00000000	      0.00000000	     -1.34657741	     49.67367935	   -366.32540894	   -293.58707591	  -1145.45816895	      0.00000000	      0.00000000	      0.00000000	   6238.62697530	     10.01859733	    -57.67121975	   -405.35379028	   -330.78943870	   -738.07230827	      0.00000000	      0.00000000	     -0.00000000	  -6332.36603720	      0.00000000	     -0.00000000	      0.00000000	      0.00000000	      0.00000000	      0.00000000	      0.00000000	      0.00000000	      0.00000000
      2.71000000	      0.00000000	     -0.00000000	      0.00000000	      0.00000000	      0.00000000	      0.00000000	      0.00000000	      0.00000000	      0.00000000	     -3.57935929	     51.35277176	   -374.40319824	   -292.81444786	  -1146.20864292	      0.00000000	      0.00000000	      0.00000000	   6457.50308329	      9.30626747	    -57.58018956	   -403.93554688	   -330.43404361	   -739.20604139	      0.00000000	     -0.00000000	     -0.00000000	  -6525.52086795	      0.00000000	     -0.00000000	      0.00000000	      0.00000000	      0.00000000	      0.00000000	      0.00000000	      0.00000000	      0.00000000
      2.72000000	      0.00000000	     -0.00000000	      0.00000000	      0.00000000	      0.00000000	      0.00000000	      0.00000000	      0.00000000	      0.00000000	     -4.99578857	     52.22243881	   -375.82559204	   -291.37403631	  -1145.23276278	      0.00000000	      0.00000000	      0.00000000	   6629.84082331	      8.26095458	    -57.75427700	   -404.30688477	   -329.69017179	   -738.62846494	      0.00000000	     -0.00000000	     -0.00000000	  -6542.14183511	      0.00000000	     -0.00000000	      0.00000000	      0.00000000	      0.00000000	      0.00000000	      0.00000000	      0.00000000	      0.00000000
      2.73000000	      0.00000000	     -0.00000000	      0.00000000	      0.00000000	      0.00000000	      0.00000000	      0.00000000	      0.00000000	      0.00000000	     -4.65189648	     51.62461853	   -376.52056885	   -291.63796280	  -1145.90002469	      0.00000000	      0.00000000	      0.00000000	   6525.02899101	      8.06210582	    -58.12882685	   -404.30715942	   -328.85846263	   -738.53603940	      0.00000000	      0.00000000	     -0.00000000	  -6743.60679605	      0.00000000	     -0.00000000	      0.00000000	      0.00000000	      0.00000000	      0.00000000	      0.00000000	      0.00000000	      0.00000000
      2.74000000	      0.00000000	     -0.00000000	      0.00000000	      0.00000000	      0.00000000	      0.00000000	      0.00000000	      0.00000000	      0.00000000	     -3.37488914	     51.25753403	   -372.27157593	   -292.12336765	  -1144.55079237	      0.00000000	      0.00000000	      0.00000000	   6631.74515912	      7.45427235	    -59.07696980	   -405.69393921	   -328.81685564	   -737.68598353	      0.00000000	     -0.00000000	     -0.00000000	  -6797.64559124	      0.00000000	     -0.00000000	      0.00000000	      0.00000000	      0.00000000	      0.00000000	      0.00000000	      0.00000000	      0.00000000
      2.75000000	      0.00000000	     -0.00000000	      0.00000000	      0.00000000	      0.00000000	      0.00000000	      0.00000000	      0.00000000	      0.00000000	     -1.52391517	     50.37089539	   -370.80987549	   -291.33585248	  -1146.74684779	      0.00000000	      0.00000000	      0.00000000	   6716.99190002	      7.71033581	    -59.09467765	   -405.35522461	   -327.83873966	   -738.05870379	      0.00000000	      0.00000000	     -0.00000000	  -7076.05083207	      0.00000000	     -0.00000000	      0.00000000	      0.00000000	      0.00000000	      0.00000000	      0.00000000	      0.00000000	      0.00000000
      2.76000000	      0.00000000	     -0.00000000	      0.00000000	      0.00000000	      0.00000000	      0.00000000	      0.00000000	      0.00000000	      0.00000000	     -1.42262089	     51.21678543	   -368.04168701	   -290.47785346	  -1144.74105352	      0.00000000	      0.00000000	      0.00000000	   6718.24467672	      7.90739302	    -59.53365014	   -404.63809204	   -328.26106974	   -738.99508765	      0.00000000	      0.00000000	     -0.00000000	  -7270.70044369	      0.00000000	     -0.00000000	      0.00000000	      0.00000000	      0.00000000	      0.00000000	      0.00000000	      0.00000000	      0.00000000
      2.77000000	      0.00000000	     -0.00000000	      0.00000000	      0.00000000	      0.00000000	      0.00000000	      0.00000000	      0.00000000	      0.00000000	     -1.60809100	     50.37247849	   -366.56433105	   -290.32771309	  -1144.96483993	      0.00000000	      0.00000000	      0.00000000	   6822.59929825	      8.32702785	    -59.44753720	   -404.28973389	   -327.66091723	   -739.03752799	      0.00000000	      0.00000000	     -0.00000000	  -7470.16325828	      0.00000000	     -0.00000000	      0.00000000	      0.00000000	      0.00000000	      0.00000000	      0.00000000	      0.00000000	      0.00000000
      2.78000000	      0.00000000	     -0.00000000	      0.00000000	      0.00000000	      0.00000000	      0.00000000	      0.00000000	      0.00000000	      0.00000000	     -2.32170224	     50.90014267	   -368.38433838	   -290.30795534	  -1146.60180522	      0.00000000	      0.00000000	      0.00000000	   6770.45871086	      8.85737091	    -59.34990007	   -403.67318726	   -326.64476631	   -738.00148063	      0.00000000	      0.00000000	     -0.00000000	  -7614.05918788	      0.00000000	     -0.00000000	      0.00000000	      0.00000000	      0.00000000	      0.00000000	      0.00000000	      0.00000000	      0.00000000
